External Loads File
version=1
nRows=54
nColumns=13
Range=5.000000e-03-10 seconds
endheader
time 	forceRightX 	forceRightY 	forceRightZ 	pointRightX 	pointRightY 	pointRightZ 	forceLeftX 	forceLeftY 	forceLeftZ 	pointLeftX 	pointLeftY 	pointLeftZ 		
7.505000 -49.223723 933.546808 -0.000000 0.366087 0.222420 -0.106492 68.674183 0.294265 -0.000000 0.127735 0.406360 -0.346289
7.510000 -18.836466 936.296547 -0.000000 0.360640 0.213847 -0.106030 61.286202 -2.657714 -0.000000 0.134161 0.415346 -0.346256
7.515000 12.608452 930.783723 -0.000000 0.354735 0.205654 -0.106206 53.504976 -6.276735 -0.000000 0.140947 0.424272 -0.346143
7.520000 42.311095 916.648434 -0.000000 0.348554 0.198123 -0.106091 45.352152 -10.590418 -0.000000 0.148098 0.432775 -0.346057
7.525000 71.302967 893.960019 -0.000000 0.342055 0.191063 -0.105961 36.775893 -15.702968 -0.000000 0.156024 0.441089 -0.346492
7.530000 96.563076 863.480802 -0.000000 0.335250 0.184408 -0.105739 27.786974 -21.327123 -0.000000 0.163966 0.448853 -0.346375
7.535000 121.778334 825.727188 -0.000000 0.328123 0.178233 -0.105439 18.315710 -27.280042 -0.000000 0.173678 0.456191 -0.347027
7.540000 136.924961 783.379324 -0.000000 0.320748 0.172266 -0.105189 8.822559 -33.006529 -0.000000 0.180777 0.462957 -0.345702
7.545000 149.798010 736.723691 -0.000000 0.313006 0.167341 -0.104920 -0.699845 -38.362716 -0.000000 0.188782 0.469188 -0.345723
7.550000 160.793985 686.845621 -0.000000 0.304897 0.162816 -0.104551 -10.057706 -42.899741 -0.000000 0.197407 0.474864 -0.345586
7.555000 169.537102 634.941085 -0.000000 0.296614 0.158987 -0.104341 -19.009462 -46.180747 -0.000000 0.206616 0.479682 -0.345856
7.560000 175.663691 582.238300 -0.000000 0.288021 0.155728 -0.104108 -27.297230 -47.925870 -0.000000 0.215524 0.484160 -0.345511
7.565000 180.791537 529.401417 -0.000000 0.279052 0.153236 -0.103945 -34.856995 -47.955965 -0.000000 0.224769 0.487881 -0.345540
7.570000 185.012316 477.483991 -0.000000 0.269737 0.151419 -0.103787 -41.581679 -46.260266 -0.000000 0.234048 0.490852 -0.345438
7.575000 188.744121 427.351827 -0.000000 0.260121 0.150362 -0.103621 -47.461181 -42.866936 -0.000000 0.243318 0.493104 -0.345774
7.580000 192.350693 379.645228 -0.000000 0.250270 0.150004 -0.103591 -52.565055 -37.795035 -0.000000 0.252610 0.494722 -0.345873
7.585000 195.841181 334.790257 -0.000000 0.240235 0.150332 -0.103569 -56.999312 -31.040653 -0.000000 0.261787 0.495648 -0.346122
7.590000 198.988670 292.915606 -0.000000 0.230226 0.151293 -0.103510 -60.876442 -22.552901 -0.000000 0.270781 0.495811 -0.346361
7.595000 201.627474 253.695917 -0.000000 0.220278 0.152955 -0.103541 -64.316541 -12.192664 -0.000000 0.279623 0.495243 -0.346975
7.600000 203.119262 216.857594 -0.000000 0.210585 0.155239 -0.103573 -67.409930 0.123840 -0.000000 0.288118 0.493932 -0.346928
7.605000 203.093834 181.836706 -0.000000 0.201194 0.158023 -0.103551 -70.275083 14.573594 -0.000000 0.296363 0.491707 -0.347498
7.610000 201.005700 148.397283 -0.000000 0.192099 0.161515 -0.103583 -73.095149 31.283415 -0.000000 0.304108 0.489068 -0.347747
7.615000 196.705876 116.296505 -0.000000 0.183340 0.165537 -0.103667 -76.152418 50.507449 -0.000000 0.311372 0.485701 -0.348054
7.620000 190.259705 85.546432 -0.000000 0.174898 0.170159 -0.103651 -79.798421 72.573641 -0.000000 0.318217 0.481895 -0.348349
7.625000 181.971554 56.396933 -0.000000 0.166800 0.175253 -0.103708 -84.403608 97.858515 -0.000000 0.324678 0.477437 -0.348654
7.630000 172.339585 29.240626 -0.000000 0.158948 0.180937 -0.103557 -90.264057 126.777030 -0.000000 0.330751 0.472179 -0.348947
7.635000 161.898653 4.913987 -0.000000 0.151498 0.187236 -0.103580 -97.820933 159.529790 -0.000000 0.336288 0.466326 -0.349131
7.640000 151.307291 -15.809134 -0.000000 0.144571 0.194059 -0.103741 -107.469659 196.140526 -0.000000 0.341468 0.460174 -0.349335
7.645000 141.164631 -32.627056 -0.000000 0.137954 0.201283 -0.103823 -118.900552 236.590734 -0.000000 0.346396 0.452817 -0.349584
7.650000 132.017312 -44.997607 -0.000000 0.131733 0.208952 -0.103907 -131.939395 280.214358 -0.000000 0.351253 0.444749 -0.349770
7.655000 124.398640 -52.626696 -0.000000 0.125917 0.216957 -0.103893 -146.372666 325.872608 -0.000000 0.355830 0.436134 -0.349895
7.660000 118.697738 -55.688611 -0.000000 0.120564 0.225416 -0.103972 -161.607213 372.246765 -0.000000 0.360111 0.427106 -0.349967
7.665000 115.109863 -54.720532 -0.000000 0.115736 0.234274 -0.103929 -176.753925 418.019125 -0.000000 0.364204 0.417581 -0.350119
7.670000 113.731013 -50.340367 -0.000000 0.111484 0.243378 -0.103942 -191.562135 461.759422 -0.000000 0.367930 0.407756 -0.350058
7.675000 114.415557 -43.473136 -0.000000 0.107743 0.252842 -0.103886 -205.567267 502.525103 -0.000000 0.371326 0.397897 -0.349825
7.680000 116.846911 -35.108301 -0.000000 0.104640 0.262393 -0.103883 -218.497954 539.790068 -0.000000 0.374355 0.387730 -0.349486
7.685000 120.501398 -26.448270 -0.000000 0.102119 0.272646 -0.103943 -228.937209 573.977198 -0.000000 0.376982 0.377238 -0.349293
7.690000 124.902072 -18.111009 -0.000000 0.100196 0.282632 -0.103971 -237.474690 605.090729 -0.000000 0.379210 0.366050 -0.349095
7.695000 129.500526 -10.375467 -0.000000 0.098949 0.292882 -0.104014 -245.293193 633.163344 -0.000000 0.380858 0.355290 -0.349010
7.700000 133.732759 -3.715094 -0.000000 0.098300 0.303316 -0.104050 -251.449695 659.164524 -0.000000 0.382154 0.344594 -0.348831
7.705000 137.209485 1.646616 -0.000000 0.098176 0.313638 -0.104307 -255.331658 683.901831 -0.000000 0.383157 0.333549 -0.348619
7.710000 139.699580 5.627339 -0.000000 0.098719 0.324212 -0.104540 -256.556528 707.944514 -0.000000 0.383416 0.322495 -0.348491
7.715000 141.062370 8.162869 -0.000000 0.099124 0.334840 -0.105473 -254.629509 731.669584 -0.000000 0.383243 0.311268 -0.348848
7.720000 141.167604 9.340066 -0.000000 0.100870 0.345532 -0.105721 -249.705075 754.966761 -0.000000 0.382296 0.300231 -0.348296
7.725000 139.868947 9.208520 -0.000000 0.103219 0.356114 -0.105913 -241.529337 777.607316 -0.000000 0.380923 0.289322 -0.348237
7.730000 137.011839 7.796553 -0.000000 0.106627 0.366618 -0.105899 -229.291057 799.287305 -0.000000 0.378945 0.278611 -0.348155
7.735000 132.442037 5.440159 -0.000000 0.109996 0.376969 -0.106216 -213.501909 819.148249 -0.000000 0.376420 0.268024 -0.348141
7.740000 126.068591 2.405171 -0.000000 0.113938 0.387141 -0.106491 -194.205423 836.415399 -0.000000 0.373341 0.257761 -0.348077
7.745000 117.874921 -1.155757 -0.000000 0.118626 0.397193 -0.106732 -170.942994 850.381643 -0.000000 0.369706 0.247821 -0.347906
7.750000 107.888514 -5.012079 -0.000000 0.123884 0.406898 -0.106924 -144.280076 860.138649 -0.000000 0.365572 0.238040 -0.347807
7.755000 96.166483 -8.992886 -0.000000 0.129585 0.416349 -0.107049 -115.055108 864.896830 -0.000000 0.360918 0.228635 -0.347688
7.760000 82.807374 -13.029686 -0.000000 0.135874 0.425590 -0.107347 -83.725043 864.120908 -0.000000 0.355705 0.219775 -0.347547
7.765000 68.011248 -16.991960 -0.000000 0.142551 0.434360 -0.107649 -51.418960 857.424185 -0.000000 0.350058 0.211137 -0.347490
7.770000 52.117467 -20.794159 -0.000000 0.149716 0.442798 -0.107919 -18.718989 844.733618 -0.000000 0.343946 0.202907 -0.347479
